<svg id="aa69a168-62f4-45f7-a375-538a0dc7f1f9" data-name="Layer 1" xmlns="http://www.w3.org/2000/svg" xmlns:xlink="http://www.w3.org/1999/xlink" width="63.9mm" height="39.83mm" viewBox="0 0 181.14 112.9">
  <defs>
    <filter id="41a9efd1-fc43-4823-85d1-abb70322ef3e" x="49.53" y="-8249" width="22.84" height="32766" filterUnits="userSpaceOnUse" color-interpolation-filters="sRGB">
      <feFlood flood-color="#fff" result="bg"/>
      <feBlend in="SourceGraphic" in2="bg"/>
    </filter>
    <mask id="16ede1db-0a82-4e71-a706-1c34a2556284" x="49.53" y="-8249" width="22.84" height="32766" maskUnits="userSpaceOnUse">
      <g style="filter: url(#41a9efd1-fc43-4823-85d1-abb70322ef3e)"/>
    </mask>
    <linearGradient id="379c4331-2ea1-4c9a-a296-c8eafc183c61" data-name="¡ÂÁ˚ÏˇÌÌ˚È „‡‰ËÂÌÚ 2" x1="-1878.47" y1="-929.13" x2="-1878.87" y2="-947.64" gradientTransform="translate(-1725.22 1178.31) rotate(121.74)" gradientUnits="userSpaceOnUse">
      <stop offset="0" stop-color="#999"/>
      <stop offset="0.6" stop-color="#3a3a3a"/>
      <stop offset="1"/>
    </linearGradient>
    <filter id="c22150b7-e192-4ae1-af42-ce8ee93d1158" x="49.53" y="62.9" width="22.84" height="24.65" filterUnits="userSpaceOnUse" color-interpolation-filters="sRGB">
      <feFlood flood-color="#fff" result="bg"/>
      <feBlend in="SourceGraphic" in2="bg"/>
    </filter>
    <mask id="72ca3556-f201-4988-b8a4-856061c6b484" x="49.75" y="62.57" width="22.84" height="24.65" maskUnits="userSpaceOnUse">
      <g style="filter: url(#c22150b7-e192-4ae1-af42-ce8ee93d1158)">
        <g transform="translate(0.22 -0.33)">
          <g style="mask: url(#16ede1db-0a82-4e71-a706-1c34a2556284)">
            <path d="M72.07,68.5a2,2,0,0,0-1.27-3L58.17,62.9l-8.64,14,8.14,10a2,2,0,0,0,3.19-.21Z" style="mix-blend-mode: multiply;fill: url(#379c4331-2ea1-4c9a-a296-c8eafc183c61)"/>
          </g>
        </g>
      </g>
    </mask>
    <linearGradient id="14b262f0-f5d0-43f8-aee3-b267f0dad546" data-name="¡ÂÁ˚ÏˇÌÌ˚È „‡‰ËÂÌÚ 36" x1="-1878.47" y1="-929.13" x2="-1878.87" y2="-947.64" gradientTransform="translate(-1725.22 1178.31) rotate(121.74)" gradientUnits="userSpaceOnUse">
      <stop offset="0" stop-color="#b4c5e6"/>
      <stop offset="0.22" stop-color="#c5d2ec"/>
      <stop offset="1" stop-color="#fff"/>
    </linearGradient>
  </defs>
  <title>setup-my-website</title>
  <g>
    <g>
      <path d="M162.59,103.59V97.81a3.38,3.38,0,0,1,0,5.78Zm4.28-2.89a6.05,6.05,0,0,0-4.28-5.78v-3.4a1.77,1.77,0,0,0-1.77-1.77h-2.51a1.77,1.77,0,1,0,0,3.54H159v15.77H146.44V93.29h6.3a1.77,1.77,0,1,0,0-3.54h-8.07a1.77,1.77,0,0,0-1.77,1.77v19.31a1.77,1.77,0,0,0,1.77,1.77h16.14a1.77,1.77,0,0,0,1.77-1.77v-4.35A6.06,6.06,0,0,0,166.86,100.7Z" transform="translate(0.22 -0.33)" style="fill: #60a2d7"/>
      <path d="M160.82,113.23H144.67a2.4,2.4,0,0,1-2.4-2.4V91.52a2.4,2.4,0,0,1,2.4-2.4h8.07a2.4,2.4,0,0,1,0,4.8h-5.67v14.51h11.34V93.92h-.11a2.4,2.4,0,0,1,0-4.8h2.51a2.4,2.4,0,0,1,2.4,2.4v3a6.67,6.67,0,0,1,0,12.46v3.9A2.4,2.4,0,0,1,160.82,113.23ZM144.67,90.38a1.14,1.14,0,0,0-1.14,1.14v19.31a1.14,1.14,0,0,0,1.14,1.14h16.14a1.14,1.14,0,0,0,1.14-1.14V106l.45-.14a5.41,5.41,0,0,0,0-10.36l-.45-.14V91.52a1.14,1.14,0,0,0-1.14-1.14h-2.51a1.14,1.14,0,0,0,0,2.28h1.37v17H145.81v-17h6.93a1.14,1.14,0,0,0,0-2.28ZM162,104.71v-8l1,.59a4,4,0,0,1,0,6.85Zm1.26-5.38v2.73a2.76,2.76,0,0,0,0-2.73Z" transform="translate(0.22 -0.33)" style="fill: #fff"/>
    </g>
    <g>
      <path d="M149.84,86.7a.66.66,0,0,1-.66-.66c0-.26-.12-.38-.48-.68a2,2,0,0,1,0-3.41c.37-.3.48-.42.48-.68s-.12-.38-.48-.68a2.1,2.1,0,0,1-1-1.71.66.66,0,1,1,1.33,0c0,.26.12.38.48.68a2,2,0,0,1,0,3.41c-.37.3-.48.42-.48.68s.12.38.48.68a2.1,2.1,0,0,1,1,1.71A.66.66,0,0,1,149.84,86.7Z" transform="translate(0.22 -0.33)" style="fill: #457abd"/>
      <path d="M153.47,86.7a.66.66,0,0,1-.66-.66,1.35,1.35,0,0,0-.54-1.05,2.59,2.59,0,0,1,0-3.94,1.29,1.29,0,0,0,0-2.11,2.65,2.65,0,0,1-.91-2,.66.66,0,1,1,1.33,0,1.35,1.35,0,0,0,.54,1.05,2.59,2.59,0,0,1,0,3.94,1.29,1.29,0,0,0,0,2.11,2.65,2.65,0,0,1,.91,2A.66.66,0,0,1,153.47,86.7Z" transform="translate(0.22 -0.33)" style="fill: #457abd"/>
      <path d="M157.1,86.7a.66.66,0,0,1-.66-.66c0-.26-.12-.38-.48-.68a2,2,0,0,1,0-3.41c.37-.3.48-.42.48-.68s-.12-.38-.48-.68a2.1,2.1,0,0,1-1-1.71.66.66,0,1,1,1.33,0c0,.26.12.38.48.68a2,2,0,0,1,0,3.41c-.37.3-.48.42-.48.68s.12.38.48.68a2.1,2.1,0,0,1,1,1.71A.66.66,0,0,1,157.1,86.7Z" transform="translate(0.22 -0.33)" style="fill: #457abd"/>
    </g>
  </g>
  <g>
    <path d="M111.28,44.23h-2.43a1.77,1.77,0,1,1,0-3.54h2.43a1.77,1.77,0,0,1,0,3.54Z" transform="translate(0.22 -0.33)" style="fill: #457abd"/>
    <path d="M111.28,44.55h-2.43a2.08,2.08,0,1,1,0-4.17h2.43a2.08,2.08,0,1,1,0,4.17ZM108.85,41a1.45,1.45,0,1,0,0,2.91h2.43a1.45,1.45,0,1,0,0-2.91Z" transform="translate(0.22 -0.33)" style="fill: #fff"/>
  </g>
  <g>
    <path d="M66.54,95.94H56.12a6.62,6.62,0,0,1-6.61-6.61V50.85a6.62,6.62,0,0,1,6.61-6.61h46.53a1.77,1.77,0,0,0,0-3.54H56.12A10.16,10.16,0,0,0,46,50.85V89.33A10.16,10.16,0,0,0,56.12,99.48H66.54a1.77,1.77,0,0,0,0-3.54Z" transform="translate(0.22 -0.33)" style="fill: #457abd"/>
    <path d="M66.54,100.11H56.12A10.79,10.79,0,0,1,45.34,89.33V50.85A10.79,10.79,0,0,1,56.12,40.07h46.53a2.4,2.4,0,0,1,0,4.8H56.12a6,6,0,0,0-6,6V89.33a6,6,0,0,0,6,6H66.54a2.4,2.4,0,0,1,0,4.8ZM56.12,41.33a9.53,9.53,0,0,0-9.52,9.52V89.33a9.53,9.53,0,0,0,9.52,9.52H66.54a1.14,1.14,0,0,0,0-2.28H56.12a7.25,7.25,0,0,1-7.24-7.24V50.85a7.25,7.25,0,0,1,7.24-7.24h46.53a1.14,1.14,0,0,0,0-2.28Z" transform="translate(0.22 -0.33)" style="fill: #fff"/>
  </g>
  <g>
    <path d="M126.27,40.7h-9a1.77,1.77,0,1,0,0,3.54h9a6.62,6.62,0,0,1,6.61,6.61V89.33a6.62,6.62,0,0,1-6.61,6.61H73a1.77,1.77,0,0,0,0,3.54H84.2A11.37,11.37,0,0,1,73,109.06a1.77,1.77,0,0,0,0,3.54A14.91,14.91,0,0,0,87.77,99.48h6.86A14.91,14.91,0,0,0,109.4,112.6a1.77,1.77,0,0,0,0-3.54,11.37,11.37,0,0,1-11.21-9.58h28.08a10.16,10.16,0,0,0,10.15-10.15V50.85A10.16,10.16,0,0,0,126.27,40.7Z" transform="translate(0.22 -0.33)" style="fill: #457abd"/>
    <path d="M109.4,113.23a15.52,15.52,0,0,1-15.33-13.12H88.32A15.52,15.52,0,0,1,73,113.23a2.4,2.4,0,1,1,0-4.8,10.81,10.81,0,0,0,10.45-8.32H73a2.4,2.4,0,0,1,0-4.8h53.28a6,6,0,0,0,6-6V50.85a6,6,0,0,0-6-6h-9a2.4,2.4,0,1,1,0-4.8h9A10.79,10.79,0,0,1,137,50.85V89.33a10.79,10.79,0,0,1-10.78,10.78H99a10.81,10.81,0,0,0,10.45,8.32,2.4,2.4,0,1,1,0,4.8ZM87.21,98.85h8l.07.56A14.26,14.26,0,0,0,109.4,112a1.14,1.14,0,1,0,0-2.28A12.07,12.07,0,0,1,97.57,99.58l-.11-.73h28.81a9.53,9.53,0,0,0,9.52-9.52V50.85a9.53,9.53,0,0,0-9.52-9.52h-9a1.14,1.14,0,0,0,0,2.28h9a7.25,7.25,0,0,1,7.24,7.24V89.33a7.25,7.25,0,0,1-7.24,7.24H73a1.14,1.14,0,1,0,0,2.28H84.93l-.11.73A12.07,12.07,0,0,1,73,109.69,1.14,1.14,0,1,0,73,112,14.26,14.26,0,0,0,87.14,99.4Z" transform="translate(0.22 -0.33)" style="fill: #fff"/>
  </g>
  <g>
    <path d="M53,53.08v34a5.31,5.31,0,0,0,5.31,5.31H124a5.31,5.31,0,0,0,5.31-5.31v-34A5.31,5.31,0,0,0,124,47.77H58.35A5.31,5.31,0,0,0,53,53.08Zm74.53,0v34A3.54,3.54,0,0,1,124,90.63H58.35a3.54,3.54,0,0,1-3.54-3.54v-34a3.54,3.54,0,0,1,3.54-3.54H124A3.54,3.54,0,0,1,127.57,53.08Z" transform="translate(0.22 -0.33)" style="fill: #60a2d7"/>
    <path d="M124,92.72H58.35a5.63,5.63,0,0,1-5.62-5.62v-34a5.63,5.63,0,0,1,5.62-5.62H124a5.63,5.63,0,0,1,5.62,5.62v34A5.63,5.63,0,0,1,124,92.72ZM58.35,48.09a5,5,0,0,0-5,5v34a5,5,0,0,0,5,5H124a5,5,0,0,0,5-5v-34a5,5,0,0,0-5-5ZM124,90.95H58.35a3.86,3.86,0,0,1-3.85-3.85v-34a3.86,3.86,0,0,1,3.85-3.85H124a3.86,3.86,0,0,1,3.85,3.85v34A3.86,3.86,0,0,1,124,90.95ZM58.35,49.86a3.23,3.23,0,0,0-3.22,3.22v34a3.23,3.23,0,0,0,3.22,3.22H124a3.23,3.23,0,0,0,3.22-3.22v-34A3.23,3.23,0,0,0,124,49.86Z" transform="translate(0.22 -0.33)" style="fill: #fff"/>
  </g>
  <g>
    <path d="M9.48,112.6H8.15a1.77,1.77,0,0,1,0-3.54H9.48a1.77,1.77,0,1,1,0,3.54Z" transform="translate(0.22 -0.33)" style="fill: #457abd"/>
    <path d="M9.48,112.91H8.15a2.08,2.08,0,1,1,0-4.17H9.48a2.08,2.08,0,1,1,0,4.17Z" transform="translate(0.22 -0.33)" style="fill: #fff"/>
  </g>
  <g>
    <g style="mask: url(#72ca3556-f201-4988-b8a4-856061c6b484)">
      <path d="M72.07,68.5a2,2,0,0,0-1.27-3L58.17,62.9l-8.64,14,8.14,10a2,2,0,0,0,3.19-.21Z" transform="translate(0.22 -0.33)" style="fill: url(#14b262f0-f5d0-43f8-aee3-b267f0dad546)"/>
    </g>
    <g>
      <path d="M58.17,62.9l-9-2v0a5.13,5.13,0,0,0-5.57.52L32.47,56.26a6.62,6.62,0,0,0-9.32,7.23l7.4,38.93a10.4,10.4,0,0,0-7.44,10h10a1.76,1.76,0,0,0,1.71,0h9.1A10.39,10.39,0,0,0,34.07,102L26.62,62.83A3.08,3.08,0,0,1,31,59.46l10.75,5.05a5.13,5.13,0,0,0,2,5.13h0l5.77,7.21a3.11,3.11,0,0,0,5.07-.31l5.55-9A3.11,3.11,0,0,0,58.17,62.9Z" transform="translate(0.22 -0.33)" style="fill: #457abd"/>
      <path d="M33.95,112.91a2.08,2.08,0,0,1-.93-.22H22.8v-.32a10.77,10.77,0,0,1,7.39-10.18L22.84,63.55A6.94,6.94,0,0,1,32.6,56l10.92,5.13a5.44,5.44,0,0,1,5.66-.48h0l9,2a3.43,3.43,0,0,1,2.19,5.15l-5.55,9a3.43,3.43,0,0,1-5.59.34l-5.76-7.19a5.46,5.46,0,0,1-2.16-5.16l-10.54-5a2.77,2.77,0,0,0-3.9,3l7.4,38.93a10.7,10.7,0,0,1,9.88,10.68v.32H34.88a2.06,2.06,0,0,1-.93.22Zm-10.51-.85h9.74l.07,0a1.42,1.42,0,0,0,1,.16,1.45,1.45,0,0,0,.43-.16l.07,0h8.86a10.07,10.07,0,0,0-9.53-9.75h-.25L26.31,62.89a3.4,3.4,0,0,1,4.78-3.71l11,5.16,0,.24a4.83,4.83,0,0,0,1.91,4.81l.25.18,0,.06,5.63,7a2.8,2.8,0,0,0,4.56-.28l5.55-9a2.8,2.8,0,0,0-1.78-4.21l-8.81-1.92,0,.06L49,61.23a4.81,4.81,0,0,0-5.23.49l-.15.12-11.27-5.3a6.31,6.31,0,0,0-8.88,6.89l7.45,39.21-.27.08A10.14,10.14,0,0,0,23.43,112.06Z" transform="translate(0.22 -0.33)" style="fill: #fff"/>
    </g>
  </g>
  <g>
    <g>
      <path d="M154.82,6.49h0q-.41-.45-.86-.87a1.37,1.37,0,0,0-1.88,2q.37.35.72.73h0A13.69,13.69,0,1,1,142.7,3.88q.46,0,.91,0a1.37,1.37,0,0,0,.18-2.73q-.54,0-1.09,0a16.43,16.43,0,1,0,12.13,5.34Z" transform="translate(0.22 -0.33)" style="fill: #457abd;stroke: #010101;stroke-miterlimit: 10;stroke-width: 0.5px"/>
      <path d="M142.7,34.48a16.91,16.91,0,1,1,0-33.83c.38,0,.76,0,1.12,0a1.85,1.85,0,0,1,1.73,2A1.88,1.88,0,0,1,144.9,4a1.79,1.79,0,0,1-1.34.44l-.87,0a13.2,13.2,0,1,0,9.75,4.3c-.23-.25-.46-.48-.69-.7A1.85,1.85,0,0,1,153,4.76a1.87,1.87,0,0,1,1.33.51c.3.29.6.59.88.9h0A16.91,16.91,0,0,1,142.7,34.48Zm0-32.85a15.94,15.94,0,1,0,11.77,5.19h0c-.28-.3-.55-.58-.84-.85a.88.88,0,0,0-1.24,0,.88.88,0,0,0,0,1.24c.25.24.5.49.74.75A14.18,14.18,0,1,1,142.7,3.39c.32,0,.63,0,.94,0a.83.83,0,0,0,.63-.2.88.88,0,0,0,.31-.62.88.88,0,0,0-.82-.94C143.41,1.64,143.05,1.63,142.7,1.63Z" transform="translate(0.22 -0.33)" style="fill: #fff"/>
    </g>
    <g>
      <path d="M147.28,4.66a13.52,13.52,0,0,1,1.81.8,1.37,1.37,0,0,0,1.85-.57A1.37,1.37,0,0,0,150.37,3a16.22,16.22,0,0,0-2.18-1,1.37,1.37,0,0,0-.91,2.58Z" transform="translate(0.22 -0.33)" style="fill: #457abd"/>
      <path d="M149.73,6.1a1.85,1.85,0,0,1-.87-.22,13.07,13.07,0,0,0-1.74-.77h0a1.85,1.85,0,0,1-.18-3.42,1.84,1.84,0,0,1,1.42-.07,16.71,16.71,0,0,1,2.25,1,1.85,1.85,0,0,1-.87,3.49Zm-2.29-1.9a14,14,0,0,1,1.88.82.9.9,0,0,0,1.19-.36.88.88,0,0,0-.36-1.19A15.77,15.77,0,0,0,148,2.54a.88.88,0,0,0-.67,0,.87.87,0,0,0-.45.5.88.88,0,0,0,.54,1.12Z" transform="translate(0.22 -0.33)" style="fill: #fff"/>
    </g>
    <g>
      <path d="M135.64,19.29a1.37,1.37,0,1,0,1.13,2.49l6.49-3a1.36,1.36,0,0,0,.65-.62l3.79-7.46a1.37,1.37,0,0,0-2.44-1.24l-3.57,7Z" transform="translate(0.22 -0.33)" style="fill: #60a2d7"/>
      <path d="M136.21,22.39a1.85,1.85,0,0,1-.77-3.54h0l5.9-2.69,3.49-6.88a1.85,1.85,0,1,1,3.3,1.68l-3.79,7.46a1.86,1.86,0,0,1-.88.85l-6.49,3A1.84,1.84,0,0,1,136.21,22.39Zm-.37-2.65a.88.88,0,0,0-.43,1.17.9.9,0,0,0,1.17.43l6.49-3a.88.88,0,0,0,.42-.4l3.79-7.46a.88.88,0,1,0-1.57-.8l-3.65,7.18Z" transform="translate(0.22 -0.33)" style="fill: #fff"/>
    </g>
  </g>
  <g>
    <path d="M39.86,19.91a3.76,3.76,0,0,0-3.16-1.57H32.52V15a1,1,0,1,1,2,0,1.37,1.37,0,1,0,2.73,0,3.76,3.76,0,0,0-4.78-3.61v-2a1,1,0,1,1,2,0,1.37,1.37,0,1,0,2.73,0,3.76,3.76,0,0,0-4.78-3.61V4.58a1,1,0,1,1,2,0,1.37,1.37,0,1,0,2.73,0,3.76,3.76,0,0,0-7.49-.42A3.76,3.76,0,0,0,25,7.77a1.37,1.37,0,1,0,2.73,0,1,1,0,1,1,2,0V9.46A3.76,3.76,0,0,0,25,13.08a1.37,1.37,0,1,0,2.73,0,1,1,0,1,1,2,0v5.26H25.61a3.76,3.76,0,0,0-3.16,1.57,2.85,2.85,0,0,0-.32,2.67l.53,1.49a1.37,1.37,0,1,0,2.57-.92l-.55-1.54s0-.08,0-.17a1.09,1.09,0,0,1,.9-.37H36.7a1.09,1.09,0,0,1,.9.37c.06.09,0,.13,0,.22l-3.56,9.93H28.26l-1.32-3.68a1.37,1.37,0,1,0-2.57.92L26,33.42a1.37,1.37,0,0,0,1.29.91H35a1.37,1.37,0,0,0,1.29-.91l3.86-10.78A2.88,2.88,0,0,0,39.86,19.91Z" transform="translate(0.22 -0.33)" style="fill: #1c6cb4"/>
    <path d="M35,34.81H27.3a1.86,1.86,0,0,1-1.74-1.23L23.91,29a1.85,1.85,0,1,1,3.49-1.25l1.2,3.36h5.1l3.39-9.46a.86.86,0,0,0-.4-.09H25.61a.86.86,0,0,0-.4.09L25.7,23a1.86,1.86,0,0,1-1.12,2.37,1.85,1.85,0,0,1-2.37-1.12l-.53-1.49A3.34,3.34,0,0,1,22,19.64a4.25,4.25,0,0,1,3.57-1.79H29.3V13.08a.54.54,0,0,0-1.08,0,1.85,1.85,0,0,1-3.71,0A4.24,4.24,0,0,1,26.3,9.62a1.86,1.86,0,0,1-1.78-1.85,4.24,4.24,0,0,1,4.9-4.19,4.24,4.24,0,0,1,8.37,1,1.86,1.86,0,0,1-1.34,1.78,4.24,4.24,0,0,1,1.34,3.09,1.85,1.85,0,0,1-2.31,1.8A4.25,4.25,0,0,1,37.79,15a1.85,1.85,0,1,1-3.71,0A.54.54,0,0,0,33,15v2.83H36.7a4.25,4.25,0,0,1,3.56,1.79,3.35,3.35,0,0,1,.35,3.18L36.76,33.58A1.86,1.86,0,0,1,35,34.81Zm-9.35-7.32a.88.88,0,0,0-.83,1.18l1.64,4.59a.88.88,0,0,0,.83.58H35a.88.88,0,0,0,.83-.58L39.7,22.47a2.41,2.41,0,0,0-.24-2.29h0a3.28,3.28,0,0,0-2.76-1.36H32V15a1.51,1.51,0,0,1,3,0,.88.88,0,0,0,1.76,0,3.27,3.27,0,0,0-4.16-3.15l-.62.18V9.45a1.51,1.51,0,1,1,3,0,.88.88,0,0,0,1.76,0A3.27,3.27,0,0,0,32.66,6.3L32,6.48V4.58a1.51,1.51,0,1,1,3,0,.88.88,0,0,0,1.76,0,3.27,3.27,0,0,0-6.52-.36l-.06.58-.56-.16a3.24,3.24,0,0,0-.91-.13,3.27,3.27,0,0,0-3.27,3.27.88.88,0,1,0,1.76,0,1.51,1.51,0,1,1,3,0v2.34l-.62-.18a3.27,3.27,0,0,0-4.16,3.15.88.88,0,0,0,1.76,0,1.51,1.51,0,0,1,3,0v5.75H25.61a3.28,3.28,0,0,0-2.76,1.36,2.37,2.37,0,0,0-.27,2.22l.54,1.51a.88.88,0,1,0,1.66-.59l-.55-1.54a.63.63,0,0,1,.09-.61,1.56,1.56,0,0,1,1.3-.58H36.7a1.56,1.56,0,0,1,1.3.58.66.66,0,0,1,.06.67L34.39,32.08H27.92l-1.43-4a.88.88,0,0,0-.83-.58Zm-.52-6.06v0Zm8.41-10.65A4.22,4.22,0,0,1,35,11a1.85,1.85,0,0,1-.87-1.57.54.54,0,1,0-1.08,0v1.36A4.16,4.16,0,0,1,33.55,10.78ZM28.77,7.23a.54.54,0,0,0-.54.54,1.84,1.84,0,0,1-.42,1.17,4.29,4.29,0,0,1,1.49-.07V7.77A.54.54,0,0,0,28.77,7.23Zm4.78-2a4.28,4.28,0,0,1,.67.05,1.85,1.85,0,0,1-.13-.68.54.54,0,1,0-1.08,0v.66A4.24,4.24,0,0,1,33.55,5.2Z" transform="translate(0.22 -0.33)" style="fill: #fff"/>
  </g>
  <g>
    <path d="M62.26,23.56a1.37,1.37,0,0,0-1-.48H59.81V20.73h1.62a1,1,0,1,0,0-2H59.81V17.41h1.62a1,1,0,1,0,0-2h-1.8a5.46,5.46,0,0,0-.23-.69l1.56-.9a1,1,0,1,0-1-1.77l-1.66,1a5.55,5.55,0,0,0-.5-.46l.95-1.64a1,1,0,1,0-1.77-1l-1,1.69a5.46,5.46,0,0,0-.64-.16V9.45a1,1,0,1,0-2,0v1.91a5.45,5.45,0,0,0-.66.17l-.93-1.61a1,1,0,1,0-1.77,1l.9,1.56a5.56,5.56,0,0,0-.54.51l-1.5-.87a1,1,0,0,0-1,1.77l1.43.83a5.45,5.45,0,0,0-.24.79H47.36a1,1,0,0,0,0,2h1.43v1.08H47.36a1,1,0,0,0,0,2h1.43v2.35H47.38A1.37,1.37,0,0,0,46,24.66l1.37,8.51a1.37,1.37,0,0,0,1.35,1.15h11.1a1.37,1.37,0,0,0,1.35-1.15l1.37-8.51A1.37,1.37,0,0,0,62.26,23.56ZM51.53,20a1,1,0,0,0,0-.58V16.86a1,1,0,0,0,0-.46,2.77,2.77,0,0,1,5.52.37v6.3H51.53Zm7.16,11.6H49.92L49,25.81H59.62Z" transform="translate(0.22 -0.33)" style="fill: #1c6cb4"/>
    <path d="M59.85,34.81H48.75a1.84,1.84,0,0,1-1.83-1.56l-1.37-8.51a1.85,1.85,0,0,1,1.83-2.15h.92V21.22h-.94a1.51,1.51,0,1,1,0-3h.94v-.11h-.94a1.51,1.51,0,1,1,0-3h1.2l0-.08-1.08-.62A1.51,1.51,0,1,1,49,11.73l1.18.68h0l-.7-1.22A1.51,1.51,0,0,1,50,9.13a1.51,1.51,0,0,1,2.06.55l.68,1.18V9.45a1.51,1.51,0,1,1,3,0v1.37l.71-1.23a1.51,1.51,0,0,1,2.62,1.51l-.68,1.18,1.23-.71a1.51,1.51,0,0,1,2.06.55,1.51,1.51,0,0,1-.55,2.06L60,14.88h1.42a1.51,1.51,0,0,1,0,3H60.3v.29h1.13a1.51,1.51,0,1,1,0,3H60.3v1.37h.92a1.85,1.85,0,0,1,1.83,2.15l-1.37,8.51A1.84,1.84,0,0,1,59.85,34.81ZM47.38,23.56a.88.88,0,0,0-.87,1l1.37,8.51a.88.88,0,0,0,.87.74h11.1a.88.88,0,0,0,.87-.74l1.37-8.51a.88.88,0,0,0-.2-.71h0a.88.88,0,0,0-.67-.31h-1.9V20.24h2.1a.54.54,0,1,0,0-1.08h-2.1V16.93h2.1a.54.54,0,0,0,0-1.08H59.25l-.1-.36a5,5,0,0,0-.21-.63l-.16-.39,1.93-1.11a.54.54,0,0,0,.2-.74.54.54,0,0,0-.73-.2l-2,1.15-.26-.27a5.08,5.08,0,0,0-.45-.42l-.32-.26,1.15-2a.54.54,0,0,0-.93-.54l-1.17,2L55.82,12a5.06,5.06,0,0,0-.58-.15l-.4-.08V9.45a.54.54,0,1,0-1.08,0v2.32l-.4.07a5.07,5.07,0,0,0-.6.15l-.37.12-1.12-1.95a.54.54,0,0,0-.73-.2.54.54,0,0,0-.2.74l1.11,1.92-.32.26a5.1,5.1,0,0,0-.49.47l-.26.28-1.84-1.06a.54.54,0,0,0-.54.93l1.8,1-.15.39a5,5,0,0,0-.22.72l-.09.38h-2a.54.54,0,1,0,0,1.08h1.92v2.06H47.36a.54.54,0,1,0,0,1.08h1.92v3.32ZM59.1,32.08H49.5l-1.08-6.75H60.19Zm-8.77-1h7.94L59,26.3H49.56Zm7.23-7.54H51l0-3.71a.53.53,0,0,0,0-.3l0-.14,0-2.69a.51.51,0,0,0,0-.24v-.14a3.26,3.26,0,0,1,6.49.43Zm-5.55-1h4.58V16.77A2.29,2.29,0,0,0,52,16.41a1.35,1.35,0,0,1,0,.16,1.51,1.51,0,0,1,0,.35v2.43a1.5,1.5,0,0,1,0,.7Z" transform="translate(0.22 -0.33)" style="fill: #fff"/>
  </g>
  <g>
    <g id="f4d00d15-7418-4fae-b8ec-d8286b4b66c8" data-name="&lt;Group&gt;">
      <g id="024a3e57-2c84-4164-80fd-1f2558cfea1a" data-name="&lt;Group&gt;">
        <g id="d86c8edb-9da9-479f-9129-6d1af416299f" data-name="&lt;Group&gt;">
          <path id="81d3eb16-a3d8-40e4-8503-cc8d91535a8e" data-name="&lt;Path&gt;" d="M92.33,20.12a.3.3,0,0,1-.21-.09l-.49-.49a.3.3,0,1,1,.42-.42l.49.49a.3.3,0,0,1-.21.51Z" transform="translate(0.22 -0.33)" style="fill: #457abd"/>
        </g>
      </g>
      <g id="66bfe2ce-5688-4dd8-8810-29e05a0eafa9" data-name="&lt;Group&gt;">
        <g id="04e9977a-e584-432b-a129-00e91045a6a0" data-name="&lt;Group&gt;">
          <path id="d64a6a67-4e1d-4b30-88c1-5019dc17f63e" data-name="&lt;Path&gt;" d="M92.85,18.86h-.69a.3.3,0,0,1,0-.59h.69a.3.3,0,0,1,0,.59Z" transform="translate(0.22 -0.33)" style="fill: #457abd"/>
        </g>
      </g>
      <g id="54f74f04-cbd3-4cb8-b1fe-ea6ae67978a3" data-name="&lt;Group&gt;">
        <g id="b94c9084-99c6-4dfd-8b5b-c484ca76459b" data-name="&lt;Group&gt;">
          <path id="161b6db2-7b83-4d0a-ab9d-6cf7515532cc" data-name="&lt;Path&gt;" d="M91.85,18.09a.3.3,0,0,1-.21-.51l.49-.49a.3.3,0,1,1,.42.42l-.49.49A.3.3,0,0,1,91.85,18.09Z" transform="translate(0.22 -0.33)" style="fill: #457abd"/>
        </g>
      </g>
      <g id="4fba5ec4-74ae-4b62-b06c-e6b067e89e83" data-name="&lt;Group&gt;">
        <g id="09ddaee7-00de-470b-8333-390b5d029103" data-name="&lt;Group&gt;">
          <path id="a15b451c-3ab9-4dca-8de2-74179cd4ae72" data-name="&lt;Path&gt;" d="M91.07,17.77a.3.3,0,0,1-.3-.3v-.69a.3.3,0,0,1,.59,0v.69A.3.3,0,0,1,91.07,17.77Z" transform="translate(0.22 -0.33)" style="fill: #457abd"/>
        </g>
      </g>
      <g id="42fa4e45-f27b-4a55-8268-1080eac1bd23" data-name="&lt;Group&gt;">
        <g id="38205688-4336-4117-9e65-0fdbc28aa138" data-name="&lt;Group&gt;">
          <path id="326efccb-f1d4-4f79-919b-b639b0717987" data-name="&lt;Path&gt;" d="M90.3,18.08a.3.3,0,0,1-.21-.09l-.49-.49a.3.3,0,0,1,.42-.42l.49.49a.3.3,0,0,1-.21.51Z" transform="translate(0.22 -0.33)" style="fill: #457abd"/>
        </g>
      </g>
      <g id="d1f75130-3d00-419b-acf3-1051b81817b3" data-name="&lt;Group&gt;">
        <g id="a1221057-67a0-4a17-a33e-b8d80f6c5569" data-name="&lt;Group&gt;">
          <path id="bab28a43-b56b-4216-99ba-6170d3214db6" data-name="&lt;Path&gt;" d="M90,18.86h-.69a.3.3,0,0,1,0-.59H90a.3.3,0,0,1,0,.59Z" transform="translate(0.22 -0.33)" style="fill: #457abd"/>
        </g>
      </g>
      <g id="4f101360-ee23-4bbd-b854-a8fdcb739d85" data-name="&lt;Group&gt;">
        <g id="e271130b-289f-4dcf-b727-985f64ead107" data-name="&lt;Group&gt;">
          <path id="4fce7db7-be08-4842-abd2-0cd0a19f9c14" data-name="&lt;Path&gt;" d="M89.81,20.12a.3.3,0,0,1-.21-.51l.49-.49a.3.3,0,0,1,.42.42L90,20A.3.3,0,0,1,89.81,20.12Z" transform="translate(0.22 -0.33)" style="fill: #457abd"/>
        </g>
      </g>
      <g id="ffb2801c-5aa5-401f-bdfc-f98c56518745" data-name="&lt;Group&gt;">
        <g id="5e2090e3-3cae-42ef-8855-8f804bde2e8b" data-name="&lt;Group&gt;">
          <path id="387ff9d5-5caf-4664-ba0c-ed2521b8711a" data-name="&lt;Path&gt;" d="M91.07,20.64a.3.3,0,0,1-.3-.3v-.69a.3.3,0,0,1,.59,0v.69A.3.3,0,0,1,91.07,20.64Z" transform="translate(0.22 -0.33)" style="fill: #457abd"/>
        </g>
      </g>
      <g id="420c6053-3872-44dd-85aa-76def7beb2a1" data-name="&lt;Group&gt;">
        <g id="4c92c817-1749-49bf-a3b3-c7374f324cd1" data-name="&lt;Group&gt;">
          <path id="f985ec52-2bb0-4528-91a0-e8d16b46eada" data-name="&lt;Path&gt;" d="M92.33,20.12a.3.3,0,0,1-.21-.09l-.49-.49a.3.3,0,1,1,.42-.42l.49.49a.3.3,0,0,1-.21.51Z" transform="translate(0.22 -0.33)" style="fill: #457abd"/>
        </g>
      </g>
      <g id="f698c024-e875-4c49-9dfb-b07018baf127" data-name="&lt;Group&gt;">
        <g id="4293cd42-96d7-47de-8f42-17ae03073c93" data-name="&lt;Group&gt;">
          <path id="12cb2d1c-fb3f-4822-9a47-161a20e89ab7" data-name="&lt;Path&gt;" d="M92.85,18.86h-.69a.3.3,0,0,1,0-.59h.69a.3.3,0,0,1,0,.59Z" transform="translate(0.22 -0.33)" style="fill: #457abd"/>
        </g>
      </g>
      <g id="99fec701-190e-4629-9bde-ab1cd2edcd81" data-name="&lt;Group&gt;">
        <g id="ad1169b8-068c-41ec-84c5-5226007c15c4" data-name="&lt;Group&gt;">
          <path id="fc41084b-cdee-4122-b363-d1be45dc5c79" data-name="&lt;Path&gt;" d="M91.85,18.09a.3.3,0,0,1-.21-.51l.49-.49a.3.3,0,1,1,.42.42l-.49.49A.3.3,0,0,1,91.85,18.09Z" transform="translate(0.22 -0.33)" style="fill: #457abd"/>
        </g>
      </g>
      <g id="8e3ab276-97d0-4e7f-ab2b-5d7e87481ff4" data-name="&lt;Group&gt;">
        <g id="92f504cb-a17b-4cc1-bd60-cc5fb4a8967a" data-name="&lt;Group&gt;">
          <path id="35abf85a-14be-4888-bde8-08e5be4c71e1" data-name="&lt;Path&gt;" d="M91.07,17.77a.3.3,0,0,1-.3-.3v-.69a.3.3,0,0,1,.59,0v.69A.3.3,0,0,1,91.07,17.77Z" transform="translate(0.22 -0.33)" style="fill: #457abd"/>
        </g>
      </g>
    </g>
    <g id="f780109c-1827-4c2d-870d-bc54a0058c74" data-name="&lt;Group&gt;">
      <path id="b485d739-65f8-438a-9122-8fe912f213a7" data-name="&lt;Path&gt;" d="M153.41,50.23a2.12,2.12,0,1,1,1-4,.38.38,0,1,1-.38.66,1.36,1.36,0,1,0,.69,1.15.38.38,0,1,1,.76,0A2.12,2.12,0,0,1,153.41,50.23Z" transform="translate(0.22 -0.33)" style="fill: #457abd"/>
    </g>
    <g id="93291727-04e4-4871-becf-8ae6530e82ee" data-name="&lt;Group&gt;">
      <g id="d8971ad6-3365-4999-87c8-2dd42583231c" data-name="&lt;Group&gt;">
        <path id="70a77463-f0e4-4316-b5ab-b6ef32743e08" data-name="&lt;Path&gt;" d="M40.71,42.13a.47.47,0,0,1,.67,0l3.07,3.07a.47.47,0,0,1-.67.67L40.71,42.8A.47.47,0,0,1,40.71,42.13Z" transform="translate(0.22 -0.33)" style="fill: #457abd"/>
      </g>
      <g id="19688b13-1a04-4d13-899a-a9a844f36923" data-name="&lt;Group&gt;">
        <path id="e4154e7c-d5cc-4818-84a3-0fa084a951a7" data-name="&lt;Path&gt;" d="M40.71,45.2l3.07-3.07a.47.47,0,0,1,.67.67l-3.07,3.07a.47.47,0,0,1-.67-.67Z" transform="translate(0.22 -0.33)" style="fill: #457abd"/>
      </g>
    </g>
    <g id="64642553-e8cb-462c-81fe-a8536eccefbf" data-name="&lt;Group&gt;">
      <g id="d8ed0072-4889-4da2-bd45-2dda30a975d6" data-name="&lt;Group&gt;">
        <g id="066a66eb-2d47-4822-bd73-6d1ab934f577" data-name="&lt;Group&gt;">
          <g id="5c689d93-b03b-48e1-baf4-816b0756ebd5" data-name="&lt;Group&gt;">
            <path id="c0c5b689-1461-4402-bdc4-9b88010885be" data-name="&lt;Path&gt;" d="M61.37,4.12A.37.37,0,0,1,62,3.86l.6.6a.37.37,0,0,1-.52.52l-.6-.6A.37.37,0,0,1,61.37,4.12Z" transform="translate(0.22 -0.33)" style="fill: #457abd"/>
          </g>
        </g>
        <g id="978f4e3c-d12f-4626-ae49-fd44e2fa04e5" data-name="&lt;Group&gt;">
          <g id="a3e2dacb-ad0d-4bcd-bd6e-3e78f56be2e5" data-name="&lt;Group&gt;">
            <path id="62283b11-5b36-4c02-b771-550d1aeb4192" data-name="&lt;Path&gt;" d="M63.15,5.91a.37.37,0,0,1,.63-.26l.6.6a.37.37,0,1,1-.52.52l-.6-.6A.37.37,0,0,1,63.15,5.91Z" transform="translate(0.22 -0.33)" style="fill: #457abd"/>
          </g>
        </g>
      </g>
      <g id="a1c3605c-8fe8-4bba-b104-030dd63e83a8" data-name="&lt;Group&gt;">
        <g id="5eea3978-1790-4406-af04-7045fe1293a9" data-name="&lt;Group&gt;">
          <g id="28dba798-7dcb-4501-86d9-8f9d1f7f2de7" data-name="&lt;Group&gt;">
            <path id="0e72cbb8-1ef2-4298-af3c-5ffeb5a6f60f" data-name="&lt;Path&gt;" d="M63.15,4.72a.37.37,0,0,1,.11-.26l.6-.6a.37.37,0,0,1,.52.52l-.6.6a.37.37,0,0,1-.63-.26Z" transform="translate(0.22 -0.33)" style="fill: #457abd"/>
          </g>
        </g>
        <g id="100b9bb8-ffe9-453a-9b51-4c3dd1b9ebfd" data-name="&lt;Group&gt;">
          <g id="45f0814d-9bd3-4797-8194-86614f9ca3b9" data-name="&lt;Group&gt;">
            <path id="e51b13fe-bc77-465f-94ef-e2924f9dcf26" data-name="&lt;Path&gt;" d="M61.37,6.51a.37.37,0,0,1,.11-.26l.6-.6a.37.37,0,0,1,.52.52l-.6.6a.37.37,0,0,1-.63-.26Z" transform="translate(0.22 -0.33)" style="fill: #457abd"/>
          </g>
        </g>
      </g>
    </g>
    <circle id="b45a32df-1223-45da-a574-9cda67b249d9" data-name="&lt;Path&gt;" cx="97.64" cy="1.97" r="0.59" style="fill: #457abd"/>
  </g>
  <g>
    <g>
      <path d="M179.37,112.54h-1.31a1.27,1.27,0,0,1,0-2.54h1.31a1.27,1.27,0,1,1,0,2.54Z" transform="translate(0.22 -0.33)" style="fill: #457abd"/>
      <path d="M179.37,112.82h-1.31a1.54,1.54,0,0,1,0-3.09h1.31a1.54,1.54,0,0,1,0,3.09Zm-1.31-2.54a1,1,0,0,0,0,2h1.31a1,1,0,0,0,0-2Z" transform="translate(0.22 -0.33)" style="fill: #fff"/>
    </g>
    <g>
      <path d="M174.57,112.54H8.07a1.27,1.27,0,1,1,0-2.54h166.5a1.27,1.27,0,0,1,0,2.54Z" transform="translate(0.22 -0.33)" style="fill: #457abd"/>
      <path d="M174.57,112.82H8.07a1.54,1.54,0,0,1,0-3.09h166.5a1.54,1.54,0,0,1,0,3.09ZM8.07,110.28a1,1,0,0,0,0,2h166.5a1,1,0,1,0,0-2Z" transform="translate(0.22 -0.33)" style="fill: #fff"/>
    </g>
    <g>
      <path d="M3.67,112.54H1.32a1.27,1.27,0,0,1,0-2.54H3.67a1.27,1.27,0,0,1,0,2.54Z" transform="translate(0.22 -0.33)" style="fill: #457abd"/>
      <path d="M3.67,112.82H1.32a1.54,1.54,0,0,1,0-3.09H3.67a1.54,1.54,0,0,1,0,3.09Zm-2.35-2.54a1,1,0,0,0,0,2H3.67a1,1,0,0,0,0-2Z" transform="translate(0.22 -0.33)" style="fill: #fff"/>
    </g>
  </g>
  <g>
    <path d="M72.42,33.65H10.77a1,1,0,1,1,0-2H72.42a1,1,0,1,1,0,2Z" transform="translate(0.22 -0.33)" style="fill: #457abd"/>
    <path d="M72.42,33.87H10.77a1.19,1.19,0,1,1,0-2.39H72.42a1.19,1.19,0,1,1,0,2.39Zm-61.64-2a.77.77,0,0,0,0,1.53H72.42a.77.77,0,0,0,0-1.53Z" transform="translate(0.22 -0.33)" style="fill: #fff"/>
  </g>
</svg>
