<svg xmlns="http://www.w3.org/2000/svg" width="1200" height="219" viewBox="0 0 1200 219">
  <title>NinjaOutreach_LetterLogo</title>
  <g>
    <g>
      <path d="M301.715,185.41V85.353h25.053l39.226,57.461c-.429-4.717-.572-11.007-.572-16.579V85.353h26.485V185.41H366.852l-39.224-57.318c.429,4.717.573,11.007.573,16.439V185.41Z" fill="#173d51"/>
      <path d="M411.676,107.08c-7.3,0-13.885-4-13.885-13.436,0-9.29,6.585-13.292,13.885-13.292,7.446,0,13.888,4,13.888,13.292C425.564,103.078,419.122,107.08,411.676,107.08Zm-12.168,78.33V116.8h24.337V185.41Z" fill="#173d51"/>
      <path d="M476,114.656c18.9,0,27.486,12.721,27.486,28.158v42.6H479.153V146.1c0-7.289-4.439-10.719-10.452-10.719a15.4,15.4,0,0,0-11.739,6V185.41H432.624V116.8H454.1v7.862C459.825,118.515,466.841,114.656,476,114.656Z" fill="#173d51"/>
      <path d="M510.1,219c-5.3,0-9.88-.714-13.172-2.145V196.56a22.571,22.571,0,0,0,7.016,1.142c4.58,0,8.3-2.716,8.3-8.719V116.8H536.58v76.759C536.58,212.282,524.268,219,510.1,219Zm14.314-111.92c-7.3,0-13.885-4-13.885-13.436,0-9.29,6.585-13.292,13.885-13.292,7.446,0,13.888,4,13.888,13.292C538.3,103.078,531.857,107.08,524.411,107.08Z" fill="#173d51"/>
      <path d="M665.775,83.209c35.791,0,53.686,24.3,53.686,52.174s-17.895,52.171-53.686,52.171-53.686-24.3-53.686-52.171S629.985,83.209,665.775,83.209Zm0,24.3c-17.323,0-26.485,11.864-26.485,27.875s9.162,27.872,26.485,27.872,26.486-11.864,26.486-27.872S683.1,107.508,665.775,107.508Z" fill="#173d51"/>
      <path d="M796.069,116.8V185.41H774.6v-7.863c-5.727,6.147-12.741,10.007-21.9,10.007-18.9,0-27.487-12.721-27.487-28.16V116.8h24.338v39.308c0,7.291,4.439,10.721,10.452,10.721a15.4,15.4,0,0,0,11.737-6V116.8Z" fill="#173d51"/>
      <path d="M836.386,91.785V116.8H855v20.012H836.386v22.3c0,5.432,2.863,8.433,9.019,8.433a31.807,31.807,0,0,0,11.024-1.714V184.7a57.235,57.235,0,0,1-18.61,2.858c-13.315,0-25.77-5.432-25.77-23.585V136.811H801.17V116.8h10.879V97.5Z" fill="#173d51"/>
      <path d="M911.9,115.371v23.585c-9.591-2.145-19.755.857-24.051,7.432V185.41H863.516V116.8H884.99v9.293C889.715,119.229,898.448,113.942,911.9,115.371Z" fill="#173d51"/>
      <path d="M951.511,114.656c29.492,0,38.368,22.869,33.5,43.738H940.058c2.72,7.577,12.026,10.579,21.9,10.579a55,55,0,0,0,19.758-3.288v18.009c-6.442,2.287-14.6,3.86-25.482,3.86-22.621,0-40.8-12.866-40.8-36.449C915.435,124.233,936.48,114.656,951.511,114.656Zm.573,17.582c-6.728,0-12.312,4.43-12.312,11.576h23.05C963.537,140.527,961.818,132.238,952.084,132.238Z" fill="#173d51"/>
      <path d="M1099.876,114.513a50,50,0,0,1,21.188,4.716v20.727a36.954,36.954,0,0,0-17.466-4.716c-9.592,0-18.325,4.144-18.325,15.865,0,10.862,8.59,15.723,17.9,15.723a38.468,38.468,0,0,0,18.61-4.575v20.726a61.538,61.538,0,0,1-23.62,4.575c-19.185,0-37.938-10.721-37.938-35.02C1060.221,125.518,1080.264,114.513,1099.876,114.513Z" fill="#173d51"/>
      <path d="M1153.471,85.353v36.592a27.645,27.645,0,0,1,19.042-7.289c18.9,0,27.487,12.721,27.487,28.158v42.6h-24.337V146.1c0-7.289-4.439-10.719-10.452-10.719a15.4,15.4,0,0,0-11.74,6V185.41h-24.337V85.353Z" fill="#173d51"/>
      <path d="M609.52,170.116a9,9,0,0,0,2.72-.429V184.7a42.384,42.384,0,0,1-13.488,2.142c-7.586,0-10.817-2.714-13.966-7.574-6.585,5.146-8.679,8.29-18.414,8.29-13.17,0-23.908-7.862-23.908-21.154,0-17.3,15.125-22.586,28.441-22.586,5.154,0,8.669.462,10.731,1.574v-2.431c0-4.86-2.85-8.568-12.585-8.568-5.81,0-13.56,2.346-20.288,5.062V119.229c5.727-1.857,18.961-3.4,29.125-3.4,21.9,0,25.732,13.676,25.732,29.667v19.155C603.62,167.941,607.086,170.116,609.52,170.116Zm-39.238,1a18.013,18.013,0,0,0,11.311-3.573v-9.29a29.656,29.656,0,0,0-8.733-1.286c-5.727,0-10.882,2-10.882,7.432C561.978,167.971,565.128,171.115,570.282,171.115Z" fill="#173d51"/>
      <path d="M1056.324,170.116a9,9,0,0,0,2.72-.429V184.7a42.39,42.39,0,0,1-13.489,2.142c-7.586,0-10.816-2.714-13.966-7.574-6.585,5.146-8.679,8.29-18.414,8.29-13.17,0-23.908-7.862-23.908-21.154,0-17.3,15.126-22.586,28.441-22.586,5.154,0,8.67.462,10.732,1.574v-2.431c0-4.86-2.851-8.568-12.585-8.568-5.81,0-13.561,2.346-20.289,5.062V119.229c5.727-1.857,18.962-3.4,29.125-3.4,21.9,0,25.733,13.676,25.733,29.667v19.155C1050.424,167.941,1053.889,170.116,1056.324,170.116Zm-39.238,1a18.01,18.01,0,0,0,11.31-3.573v-9.29a29.656,29.656,0,0,0-8.733-1.286c-5.727,0-10.881,2-10.881,7.432C1008.782,167.971,1011.931,171.115,1017.086,171.115Z" fill="#173d51"/>
    </g>
    <g>
      <path d="M74.037,76.825a25.891,25.891,0,0,0-2.347-36.58C60.924,30.79,20.751,4.86,20.751,4.86,36.495,35.227,15.876,60.268,37.4,79.169c0,0,2.766-11.864,15.6-9A114.415,114.415,0,0,1,74.037,76.825Z" fill="#76bf46"/>
      <path d="M37.4,79.169c25.129-9,23.524-48.379,34.29-38.924a25.891,25.891,0,0,1,2.347,36.58Z" fill="#5aa83e"/>
      <path d="M23.683,98.133S36.314,76.341,45.134,72a17.779,17.779,0,1,1,15.73,31.89C43.231,112.564,23.683,98.133,23.683,98.133Z" fill="#76bf46"/>
      <path d="M23.683,98.133S40.17,96.027,48.989,91.69s15.636-20.4,19.98-11.595a17.761,17.761,0,0,1-8.1,23.8C43.231,112.564,23.683,98.133,23.683,98.133Z" fill="#5aa83e"/>
      <rect x="94.151" y="29.787" width="131.872" height="178.446" transform="translate(-4.176 232.185) rotate(-71.194)" fill="#fff"/>
      <polygon points="96.856 27.911 54.344 152.743 140.569 109.813 154.109 136.564 182.198 124.494 223.319 210.108 265.83 85.276 154.109 136.564 96.856 27.911" fill="#76bf46"/>
      <path d="M54.344,152.743l86.225-42.93L96.856,24.731s9.424,48.883,2.449,72.359C92.689,119.358,54.344,152.743,54.344,152.743Z" fill="#5aa83e"/>
      <path d="M271.37,84.05l-86.225,42.931,43.714,85.081s-9.425-48.882-2.45-72.358C233.025,117.435,271.37,84.05,271.37,84.05Z" fill="#5aa83e"/>
      <path d="M273.108,81.7a8.109,8.109,0,0,0-4.667-4.089L99.468,20.243A8.109,8.109,0,0,0,89.175,25.3L82.132,45.987A30.617,30.617,0,0,0,74.9,36.6C64,27.014,25.047,1.845,23.394.778a4.864,4.864,0,0,0-6.965,6.316c6.745,13.011,6.226,24.944,5.723,36.483-.531,12.208-1.044,24.783,8.469,35.646-1.13,1.438-2.284,2.964-3.488,4.658-4.342,6.1-7.53,11.587-7.663,11.817a4.855,4.855,0,0,0,1.319,6.342c.679.5,13.092,9.5,27.8,9.5a32.657,32.657,0,0,0,11.972-2.222L57.4,118.613H40.386a4.86,4.86,0,1,0,0,9.72h13.7L51.479,136a4.85,4.85,0,0,0-1.188-.163H4.867a4.86,4.86,0,1,0,0,9.72H48.224l-1.56,4.583a8.1,8.1,0,0,0,5.068,10.276l89.99,30.55H105.014a4.86,4.86,0,1,0,0,9.72h65.34l22.989,7.805H137.609a4.86,4.86,0,1,0,0,9.719h85.454c.052,0,.075-.006.119-.007s.092.011.137.011a8.116,8.116,0,0,0,7.68-5.5L273.511,87.884A8.1,8.1,0,0,0,273.108,81.7ZM59.749,154.578l79.1-39.383,12.587,23.581a4.057,4.057,0,0,0,5.263,1.78l23.581-10.74,38.333,78.694ZM156.8,131.606,102.469,29.817,261.646,83.856ZM95.066,33.168l39.966,74.876L56.2,147.293ZM68.476,43.894a21.058,21.058,0,0,1,1.972,29.639,22.715,22.715,0,0,0-27.465-5.89,24.974,24.974,0,0,0-5.812,4.26C31.018,64.133,31.4,55.071,31.879,44c.359-8.276.753-17.3-1.5-27.02C43.024,25.347,61.8,38.032,68.476,43.894ZM30.342,96.537C35.3,88.686,42.677,78.629,47.285,76.363A12.958,12.958,0,0,1,64.6,82.242a12.9,12.9,0,0,1-5.888,17.291C48.148,104.729,36.261,99.781,30.342,96.537ZM225.414,203.955l-37.752-77.5,75.92-34.577Z" fill="#173d51"/>
    </g>
  </g>
</svg>
